<!--?xml version="1.0" encoding="utf-8"?-->
<!-- Generator: Adobe Illustrator 18.0.0, SVG Export Plug-In . SVG Version: 6.00 Build 0)  -->

<svg version="1.1" id="_x31_0" xmlns="http://www.w3.org/2000/svg" xmlns:xlink="http://www.w3.org/1999/xlink" x="0px" y="0px" viewBox="0 0 512 512" style="width: 64px; height: 64px; opacity: 1;" xml:space="preserve">
<style type="text/css">
	.st0{fill:#374149;}
</style>
<g>
	<path class="st0" d="M230.581,146.426h191.445c5.016,0,9.078-4.066,9.078-9.079v-16.346c0-5.016-4.062-9.079-9.078-9.079H230.581
		c-5.013,0-9.075,4.063-9.075,9.079v16.346C221.506,142.36,225.568,146.426,230.581,146.426z" style="fill: rgb(58, 171, 210);"></path>
	<path class="st0" d="M230.581,227.184h191.445c5.016,0,9.078-4.062,9.078-9.078V201.76c0-5.012-4.062-9.078-9.078-9.078H230.581
		c-5.013,0-9.075,4.066-9.075,9.078v16.346C221.506,223.122,225.568,227.184,230.581,227.184z" style="fill: rgb(58, 171, 210);"></path>
	<path class="st0" d="M111.594,292.121V155.346H16.131C7.253,155.346,0,162.599,0,171.477v218.136
		c0,8.878,7.253,16.134,16.131,16.134h45.151v80.777l72.594-80.777h176.294c8.878,0,16.132-7.256,16.132-16.134v-50.079H159.002
		C132.832,339.534,111.594,318.236,111.594,292.121z" style="fill: rgb(58, 171, 210);"></path>
	<path class="st0" d="M493.603,25.476H159.002c-10.095,0-18.393,8.298-18.393,18.393v111.478v136.775
		c0,10.099,8.298,18.397,18.393,18.397h167.301h33.31l82.634,91.92v-91.92h51.356c10.099,0,18.397-8.298,18.397-18.397V43.868
		C512,33.773,503.702,25.476,493.603,25.476z M483.185,281.703h-40.938h-28.815v28.815v16.765l-32.39-36.03l-8.586-9.55h-12.842
		h-33.31H169.425V155.346V54.291h313.76V281.703z" style="fill: rgb(58, 171, 210);"></path>
</g>
</svg>
