<!--?xml version="1.0" encoding="utf-8"?-->
<!-- Generator: Adobe Illustrator 22.0.1, SVG Export Plug-In . SVG Version: 6.00 Build 0)  -->
<svg version="1.1" id="_x31_0" xmlns="http://www.w3.org/2000/svg" xmlns:xlink="http://www.w3.org/1999/xlink" x="0px" y="0px" viewBox="0 0 512 512" style="width: 64px; height: 64px; opacity: 1;" xml:space="preserve">
<style type="text/css">
	.st0{fill:#374149;}
</style>
<g>
	<path class="st0" d="M396.696,356.208h-0.004l0.114-0.114l-40.762-40.762c57.582-77.356,51.507-187.466-18.657-257.63
		c-1.453-1.453-3.035-2.687-4.519-4.086c-1.969-1.852-3.969-3.657-6-5.422c-2.954-2.558-5.95-5.019-9.012-7.374
		c-2.324-1.79-4.683-3.52-7.078-5.196c-2.847-1.992-5.718-3.91-8.648-5.738c-2.89-1.809-5.821-3.539-8.797-5.192
		c-2.555-1.414-5.129-2.766-7.73-4.058c-3.41-1.695-6.86-3.309-10.36-4.801c-2.351-1-4.71-1.938-7.086-2.84
		c-3.578-1.363-7.187-2.637-10.844-3.785c-2.531-0.801-5.066-1.524-7.617-2.215c-3.25-0.882-6.524-1.679-9.825-2.394
		c-3.199-0.695-6.402-1.297-9.625-1.836c-2.57-0.422-5.152-0.789-7.75-1.114c-4.082-0.515-8.164-0.894-12.266-1.156
		c-1.922-0.121-3.852-0.211-5.786-0.278c-4.57-0.156-9.125-0.156-13.695,0c-1.934,0.066-3.859,0.157-5.782,0.278
		c-4.105,0.258-8.187,0.641-12.273,1.156c-2.59,0.325-5.172,0.692-7.738,1.114c-3.23,0.539-6.438,1.141-9.641,1.836
		c-3.297,0.715-6.562,1.512-9.809,2.39c-2.558,0.695-5.098,1.422-7.633,2.219c-3.648,1.152-7.254,2.422-10.824,3.781
		c-2.387,0.906-4.758,1.848-7.114,2.852c-3.492,1.492-6.93,3.094-10.328,4.785c-2.621,1.301-5.207,2.664-7.782,4.086
		c-2.953,1.64-5.867,3.363-8.742,5.16c-2.946,1.836-5.836,3.766-8.703,5.774c-2.375,1.664-4.715,3.382-7.024,5.16
		c-3.078,2.363-6.09,4.84-9.054,7.41c-2.016,1.75-4,3.542-5.953,5.378c-1.497,1.406-3.086,2.645-4.543,4.106
		c-77.078,77.082-77.078,202.501,0,279.578c1.758,1.758,3.645,3.294,5.449,4.969c1.078,1,2.164,1.996,3.258,2.969
		c3.578,3.18,7.238,6.192,10.984,9.062c1.282,0.985,2.562,1.969,3.863,2.918c3.379,2.457,6.813,4.781,10.305,6.996
		c1.824,1.164,3.653,2.32,5.512,3.418c2.309,1.364,4.625,2.696,6.98,3.958c3.126,1.676,6.294,3.258,9.5,4.758
		c2.254,1.051,4.52,2.047,6.801,3.008c3.074,1.301,6.18,2.527,9.321,3.664c2.554,0.93,5.125,1.778,7.711,2.594
		c2.297,0.726,4.613,1.398,6.941,2.039c3.657,1.012,7.325,1.91,11.024,2.707c1.847,0.398,3.699,0.774,5.562,1.117
		c4.695,0.871,9.406,1.551,14.144,2.082c1.098,0.121,2.192,0.262,3.294,0.367c11.43,1.086,22.914,1.179,34.363,0.285
		c0.222-0.015,0.449-0.023,0.676-0.043c4.57-0.37,9.117-0.937,13.656-1.625c1.031-0.156,2.066-0.297,3.094-0.469
		c3.965-0.664,7.902-1.469,11.832-2.374c1.551-0.36,3.098-0.727,4.641-1.122c3.57-0.918,7.118-1.926,10.645-3.043
		c1.762-0.558,3.507-1.164,5.254-1.773c3.383-1.176,6.742-2.406,10.07-3.774c1.715-0.703,3.398-1.485,5.094-2.238
		c3.336-1.481,6.657-2.981,9.918-4.652c1.531-0.786,3.011-1.668,4.523-2.493c3.324-1.816,6.649-3.617,9.883-5.64
		c1.863-1.157,3.644-2.477,5.476-3.7c2.622-1.762,5.301-3.41,7.856-5.308L356.2,396.7l40.406-40.406L396.696,356.208z
		 M298.711,298.606c-55.754,55.754-146.473,55.758-202.23,0.003c-55.754-55.758-55.754-146.477,0.004-202.23
		c55.754-55.758,146.473-55.758,202.226-0.004C354.47,152.133,354.466,242.848,298.711,298.606z" style="fill: rgb(58, 171, 210);"></path>
	<path class="st0" d="M171.161,106.137l1.015-0.906c2.809-2.496,2.317-5.273,1.774-6.706c-0.703-1.86-2.446-3.84-5.215-3.84
		c-0.562,0-1.164,0.082-1.785,0.242c-16.008,4.134-30.938,12.43-43.176,23.989c-33.668,31.801-40.238,85.187-15.285,124.18
		c13.222,20.66,33.402,35.598,56.824,42.066c0.641,0.176,1.262,0.266,1.848,0.266c2.797,0,4.605-2.086,5.304-3.875
		c0.535-1.367,1.039-4.027-1.582-6.442c-6.985-6.43-13.207-13.781-18.496-21.847C121.875,206.703,129.969,143.43,171.161,106.137z" style="fill: rgb(58, 171, 210);"></path>
	<polygon class="st0" points="433.086,379.466 433.083,379.466 433.196,379.352 413.286,359.442 413.243,359.399 413.243,359.399 
		413.13,359.286 359.379,413.036 379.446,433.102 432.97,379.579 	" style="fill: rgb(58, 171, 210);"></polygon>
	<path class="st0" d="M500.825,446.982l-58.66-58.661l-0.125-0.125l0,0l-0.114-0.114l-53.75,53.75l58.898,58.898
		c14.855,14.856,38.898,14.922,53.816,0.004C515.747,485.88,515.681,461.837,500.825,446.982z" style="fill: rgb(58, 171, 210);"></path>
</g>
</svg>
